<svg width="22" height="20" viewBox="0 0 22 20" fill="none" xmlns="http://www.w3.org/2000/svg">
<path id="Vector" d="M11.1547 19.9181C11.049 20.0277 10.8734 20.0277 10.7681 19.9181L1.50296 10.3053L1.4854 10.2846C0.527127 9.16054 0 7.72586 0 6.24476C0 2.80107 2.80146 0 6.24476 0C7.99508 0 9.73722 0.921204 10.9612 2.42806C12.1856 0.921204 13.9273 0 15.678 0C19.1217 0 21.9228 2.80146 21.9228 6.24476C21.9228 7.72586 21.3953 9.16093 20.437 10.2846L20.4007 10.3248L19.9087 10.8363L11.1547 19.9181ZM3.29542 9.56905L3.30713 9.58076L10.9616 17.5216L18.6266 9.56983L19.0819 9.09655C19.7515 8.30098 20.1206 7.28965 20.1206 6.24554C20.1206 3.79602 18.1279 1.803 15.678 1.803C14.9094 1.803 14.1255 2.07144 13.4111 2.57945C12.7416 3.05585 12.154 3.7293 11.7572 4.47609L10.9612 5.97476L10.1652 4.47609C9.76882 3.7293 9.18122 3.05585 8.51128 2.57945C7.79648 2.07144 7.01262 1.803 6.24476 1.803C3.79524 1.803 1.80222 3.79563 1.80222 6.24554C1.80222 7.29004 2.17055 8.30176 2.84087 9.09655L3.29542 9.56944V9.56905Z" fill="#FF0097"/>
</svg>
