<svg width="23" height="23" viewBox="0 0 23 23" fill="none" xmlns="http://www.w3.org/2000/svg">
<path id="Vector" d="M22.687 4.78137C22.656 4.76091 22.6216 4.75069 22.5872 4.73364L19.3949 3.34951L19.2917 3.3052L17.9844 2.73927L17.4478 2.50745L11.7786 0.0562514C11.6032 -0.0187505 11.4037 -0.0187505 11.2282 0.0562514L0.416243 4.73023C0.381843 4.75069 0.347442 4.76091 0.316482 4.78137C0.120401 4.90751 0 5.12229 0 5.35411V17.409C0 17.6749 0.158241 17.9169 0.402483 18.0294L11.2145 22.9386C11.2351 22.9489 11.2558 22.9523 11.2764 22.9591C11.2936 22.9659 11.3108 22.9727 11.328 22.9761C11.3865 22.9898 11.4415 23 11.5 23C11.5585 23 11.617 22.9898 11.672 22.9761C11.6892 22.9727 11.7064 22.9659 11.7236 22.9591C11.7442 22.9523 11.7649 22.9489 11.7855 22.9386L22.5975 18.0294C22.8418 17.9169 23 17.6749 23 17.409V5.35411C23 5.12229 22.8796 4.9041 22.6835 4.78137H22.687ZM20.6298 5.37116L11.5034 9.51671L8.65166 8.22123L17.7161 4.10976L20.6298 5.36775V5.37116ZM4.52707 10.1713V7.22575L14.596 2.76655L16.0202 3.3802L6.309 7.78485V10.9895L4.52707 10.1747V10.1713ZM11.5034 1.42333L12.8932 2.02335L3.84251 6.03254L2.37706 5.36775L11.5034 1.42333ZM1.37945 6.41777L3.15106 7.22234V10.6111C3.15106 10.877 3.30586 11.119 3.5501 11.2315L4.92955 11.8622L6.04756 12.3736L6.70805 12.6736C6.92133 12.7725 7.16901 12.7554 7.36853 12.6293C7.56461 12.5031 7.68501 12.2884 7.68501 12.0565V9.2883L10.812 10.7099V21.2613L1.37601 16.976V6.42118L1.37945 6.41777ZM21.6274 16.9726L12.1914 21.2579V10.7031L21.6274 6.41777V16.9726Z" fill="#FF0097"/>
</svg>
