<svg width="20" height="25" viewBox="0 0 20 25" fill="none" xmlns="http://www.w3.org/2000/svg">
<g id="Group 570">
<path id="Vector" d="M19.3857 5.49533H0.280318C0.125395 5.49533 0 5.62332 0 5.78146V19.0004C0 19.1585 0.125395 19.2865 0.280318 19.2865H2.99261L0.862812 23.2364C0.622758 23.6815 0.781899 24.2408 1.21791 24.4859C1.35557 24.5634 1.50474 24.6002 1.65161 24.6002C1.96951 24.6002 2.27782 24.4279 2.44195 24.1238L5.05032 19.2869H8.93221V21.4374C8.93221 21.9455 9.33562 22.3573 9.83337 22.3573C10.3311 22.3573 10.7345 21.9455 10.7345 21.4374V19.2869H14.6099L17.2183 24.1238C17.3824 24.4283 17.6907 24.6002 18.0086 24.6002C18.1555 24.6002 18.3046 24.5634 18.4423 24.4859C18.8783 24.2408 19.0371 23.6815 18.7974 23.2364L16.6676 19.2865H19.3864C19.5413 19.2865 19.6667 19.1585 19.6667 19.0004V5.78146C19.6667 5.62332 19.5413 5.49533 19.3864 5.49533H19.3857ZM17.7835 17.365H1.88246V7.41685H17.7835V17.365Z" fill="#FF0097"/>
<path id="Vector_2" d="M7.0766 3.93335H12.5903C13.0849 3.93335 13.4858 3.54692 13.4858 3.07013C13.4858 2.59334 13.0849 2.20691 12.5903 2.20691H10.729V0.863221C10.729 0.386429 10.3281 0 9.83342 0C9.33877 0 8.93786 0.386429 8.93786 0.863221V2.20691H7.0766C6.58194 2.20691 6.18103 2.59334 6.18103 3.07013C6.18103 3.54692 6.58194 3.93335 7.0766 3.93335Z" fill="#FF0097"/>
</g>
</svg>
