<svg width="23" height="21" viewBox="0 0 23 21" fill="none" xmlns="http://www.w3.org/2000/svg">
<g id="Group 636">
<path id="Vector" d="M19.0713 12.7314C19.1284 12.5347 19.1538 12.3062 19.1538 12.0587C19.1538 11.8112 19.1221 11.5827 19.0713 11.386C19.0459 11.2908 18.9825 11.1194 18.8999 10.9163C18.443 9.79932 18.3034 8.57444 18.4938 7.3813L18.7349 5.80736C18.7349 5.80736 18.7349 5.77562 18.7349 5.75659L18.7603 5.55984L18.938 4.33496C18.9634 4.15726 18.8746 3.9986 18.7286 3.92879C18.6588 3.89071 18.5763 3.87167 18.4874 3.89071L17.3197 4.05572L17.0658 4.0938C17.0658 4.0938 17.0277 4.0938 17.015 4.0938L14.6605 4.39843C13.4229 4.55709 12.1599 4.41112 10.9858 3.97956C10.7383 3.89071 10.5035 3.8082 10.3068 3.75108C10.11 3.70031 9.88154 3.66858 9.63402 3.66858C9.62133 3.66858 9.60229 3.66858 9.5896 3.66858C9.5769 3.66858 9.57056 3.66858 9.56421 3.66858C9.55152 3.66858 9.53248 3.66858 9.51979 3.66858C9.27862 3.66858 9.0438 3.70031 8.84705 3.75108C8.65031 3.80186 8.42184 3.88436 8.16798 3.97956C6.99387 4.41112 5.73726 4.55709 4.49334 4.39843L2.13878 4.0938C2.13878 4.0938 2.1007 4.0938 2.08801 4.0938L1.83415 4.05572L0.666385 3.89071C0.577534 3.87801 0.495029 3.89071 0.425217 3.92879C0.285594 3.9986 0.196742 4.15726 0.215782 4.33496L0.393484 5.55984L0.418871 5.75659C0.418871 5.75659 0.418871 5.78832 0.418871 5.80736L0.660038 7.3813C0.844088 8.57444 0.710811 9.79932 0.253861 10.9163C0.171356 11.1257 0.107891 11.2908 0.0825048 11.386C0.0253861 11.589 0 11.8112 0 12.0587C0 12.3062 0.0317326 12.5347 0.0825048 12.7314C0.120584 12.8774 0.203089 13.0995 0.298287 13.347C0.710811 14.4386 0.837741 15.6191 0.660038 16.7678L0.418871 18.31C0.418871 18.31 0.418871 18.3481 0.418871 18.3608L0.215782 19.7824C0.177703 20.0426 0.399831 20.2711 0.666385 20.233L2.08801 20.0299C2.08801 20.0299 2.12609 20.0299 2.13878 20.0299L4.49334 19.7253C5.73091 19.5666 6.99387 19.7126 8.16798 20.1442C8.41549 20.2394 8.65031 20.3155 8.84705 20.3726C9.0438 20.4297 9.27227 20.4551 9.51979 20.4551C9.53248 20.4551 9.55152 20.4551 9.56421 20.4551C9.5769 20.4551 9.58325 20.4551 9.5896 20.4551C9.60229 20.4551 9.62133 20.4551 9.63402 20.4551C9.87519 20.4551 10.11 20.4234 10.3068 20.3726C10.5035 20.3219 10.732 20.2394 10.9858 20.1442C12.1599 19.7126 13.4166 19.5666 14.6605 19.7253L17.015 20.0299C17.015 20.0299 17.0531 20.0299 17.0658 20.0299L18.4874 20.233C18.7476 20.2711 18.9761 20.049 18.938 19.7824L18.7349 18.3608C18.7349 18.3608 18.7349 18.3227 18.7349 18.31L18.4938 16.7678C18.3161 15.6127 18.443 14.4323 18.8555 13.347C18.9507 13.0995 19.0269 12.8774 19.0713 12.7314ZM16.8246 18.1133H2.34187V6.0041H16.8246V18.1196V18.1133Z" fill="#FF0097"/>
<path id="Vector_2" d="M22.9175 9.06284C22.9746 8.8661 23 8.63762 23 8.39011C23 8.14259 22.9683 7.91412 22.9175 7.71737C22.8921 7.62218 22.8286 7.45082 22.7461 7.24773C22.2892 6.13074 22.1496 4.90586 22.34 3.71272L22.5811 2.13878C22.5811 2.13878 22.5811 2.10705 22.5811 2.08801L22.6065 1.89126L22.7842 0.666385C22.8096 0.488682 22.7208 0.330019 22.5748 0.260208C22.505 0.222128 22.4225 0.203089 22.3336 0.222128L21.1659 0.387138L20.912 0.425217C20.912 0.425217 20.8739 0.425217 20.8612 0.425217L18.5067 0.72985C17.2691 0.888514 16.0061 0.742543 14.832 0.31098C14.5845 0.222128 14.3497 0.139624 14.153 0.0825048C13.9562 0.0317326 13.7277 0 13.4802 0C13.4675 0 13.4485 0 13.4358 0C13.4231 0 13.4168 0 13.4104 0C13.3977 0 13.3787 0 13.366 0C13.1248 0 12.89 0.0317326 12.6933 0.0825048C12.4965 0.133277 12.268 0.215782 12.0142 0.31098C10.8401 0.742543 9.58345 0.888514 8.33954 0.72985L5.98498 0.425217C5.98498 0.425217 5.9469 0.425217 5.9342 0.425217L5.68034 0.387138L4.51258 0.222128C4.42373 0.209435 4.34123 0.222128 4.27141 0.260208C4.13179 0.330019 4.04294 0.488682 4.06198 0.666385L4.23968 1.89126L4.26507 2.08801C4.26507 2.08801 4.26507 2.11974 4.26507 2.13878L4.2968 2.33552H20.6581V16.3296L20.8549 16.355C20.8549 16.355 20.893 16.355 20.9057 16.355L22.3273 16.5581C22.5875 16.5962 22.816 16.374 22.7779 16.1075L22.5748 14.6859C22.5748 14.6859 22.5748 14.6478 22.5748 14.6351L22.3336 13.0929C22.1559 11.9378 22.2828 10.7574 22.6954 9.6721C22.7906 9.42459 22.8667 9.20246 22.9112 9.05649L22.9175 9.06284Z" fill="#FF0097"/>
</g>
</svg>
