<svg width="20" height="23" viewBox="0 0 20 23" fill="none" xmlns="http://www.w3.org/2000/svg">
<g id="Group 575">
<path id="Vector" d="M19.5702 0.0710573L15.5333 2.34412L13.8315 0.85934L12.9163 0.0598732C12.8246 -0.0199577 12.6873 -0.0199577 12.5957 0.0598732L11.68 0.85934L9.97517 2.3472L8.27069 0.85934L7.35503 0.0598732C7.26339 -0.0199577 7.12612 -0.0199577 7.03448 0.0598732L6.1192 0.85934L4.41433 2.3472L0.362319 0.083784C0.199913 -0.00723106 0 0.110394 0 0.29551V22.718C0 22.9039 0.200687 23.0207 0.363092 22.9293L4.40003 20.6563L6.1018 22.141L7.01708 22.9401C7.10872 23.02 7.24599 23.02 7.33763 22.9401L8.25329 22.141L9.95816 20.6532L11.6626 22.141L12.5783 22.9401C12.6699 23.02 12.8072 23.02 12.8989 22.9401L13.8141 22.141L15.519 20.6532L19.571 22.9166C19.7334 23.0072 19.9333 22.89 19.9333 22.7049V0.282012C19.9333 0.096125 19.7326 -0.0203434 19.5702 0.0710573ZM18.2996 20.1349L15.519 18.4881L12.7384 20.9147L9.95816 18.4881L7.17755 20.9147L4.39693 18.4881L1.63372 20.1349V2.86553L4.41433 4.51151L7.19495 2.08534L9.97517 4.51151L12.7558 2.08534L15.5364 4.51151L18.2996 2.86553V20.1349Z" fill="#FF0097"/>
<path id="Vector_2" d="M15.067 6.90021H4.86631C4.71922 6.90021 4.59998 7.02801 4.59998 7.18567V8.53141C4.59998 8.68907 4.71922 8.81687 4.86631 8.81687H15.067C15.2141 8.81687 15.3333 8.68907 15.3333 8.53141V7.18567C15.3333 7.02801 15.2141 6.90021 15.067 6.90021Z" fill="#FF0097"/>
<path id="Vector_3" d="M15.067 9.96655H4.86631C4.71922 9.96655 4.59998 10.0944 4.59998 10.252V11.5978C4.59998 11.7554 4.71922 11.8832 4.86631 11.8832H15.067C15.2141 11.8832 15.3333 11.7554 15.3333 11.5978V10.252C15.3333 10.0944 15.2141 9.96655 15.067 9.96655Z" fill="#FF0097"/>
<path id="Vector_4" d="M15.078 14.5664H10.9888C10.8477 14.5664 10.7334 14.6942 10.7334 14.8519V16.1976C10.7334 16.3553 10.8477 16.4831 10.9888 16.4831H15.078C15.2191 16.4831 15.3334 16.3553 15.3334 16.1976V14.8519C15.3334 14.6942 15.2191 14.5664 15.078 14.5664Z" fill="#FF0097"/>
</g>
</svg>
