<svg width="21" height="23" viewBox="0 0 21 23" fill="none" xmlns="http://www.w3.org/2000/svg">
<g id="Group 571">
<path id="Vector" d="M20.3229 12.8875C20.2261 12.1265 19.9995 11.4736 19.6495 10.9478C19.0689 10.0749 18.1622 9.59423 17.0967 9.59423C16.9862 9.59423 16.8724 9.59921 16.7586 9.60949C16.7423 9.61082 16.7131 9.61347 16.6783 9.61812L16.1157 9.69143C15.5577 8.73798 14.797 7.94178 14.1099 7.22354L14.1089 7.22221C13.531 6.61776 12.9853 6.04682 12.6874 5.51137C12.4442 5.07413 12.4037 4.74967 12.5437 4.35456C12.8556 3.47376 12.8128 2.60093 12.4196 1.82927C12.1078 1.21686 11.582 0.703312 10.939 0.383836C10.4351 0.1327 9.86382 0 9.28857 0H9.28824C8.62639 0 7.99275 0.171515 7.42579 0.49265C6.85883 0.813453 6.35855 1.28421 5.96376 1.88202C5.5023 2.58102 5.21732 3.355 5.11647 4.18172C5.0196 4.97759 5.09491 5.82421 5.3404 6.69805C5.40344 6.92198 5.47377 7.13463 5.54775 7.33302C5.28965 7.36387 5.01396 7.40567 4.73031 7.46174C2.81246 7.84259 1.3866 8.70613 0.606654 9.95949C0.0420139 10.8668 -0.132819 11.8389 0.100402 12.7704C0.358504 13.8022 1.05518 14.5685 1.60257 15.0343C1.51399 15.4025 1.46589 15.7601 1.45925 16.1032C1.44665 16.7574 1.58134 17.3652 1.86001 17.9096C2.18612 18.5478 2.71692 19.0959 3.39502 19.4937C3.4398 19.5199 3.4836 19.5448 3.52672 19.568C3.54265 20.134 3.68994 20.6618 3.96463 21.1249C4.34913 21.7711 4.94761 22.2621 5.74481 22.5849C6.40831 22.8536 7.17167 22.99 8.01365 22.99C8.85563 22.99 9.82103 22.8371 10.7128 22.5478C11.6078 22.2572 12.4369 21.8435 13.1764 21.318C13.8571 20.8343 14.4443 20.268 14.9263 19.6327L14.9894 19.6722C15.0089 19.6844 15.0282 19.6964 15.0474 19.7076C15.5384 20.0062 16.0457 20.1578 16.5562 20.1578C17.1484 20.1578 18.0246 19.9478 18.8347 18.9479C19.5463 18.0705 19.9235 16.9296 20.1143 16.1267C20.375 15.0303 20.449 13.8801 20.3229 12.8875ZM14.786 17.3234C14.642 17.6063 14.4795 17.8976 14.296 18.1962C14.1892 18.3654 14.1215 18.4596 14.1192 18.4626L13.9759 18.659L13.9885 18.6686C13.1442 19.8606 11.8457 20.7848 10.3031 21.2855C9.52909 21.5366 8.74184 21.663 8.01365 21.663C7.35811 21.663 6.75068 21.5608 6.2431 21.3551C5.72059 21.1435 5.33808 20.8383 5.10586 20.4478C4.85704 20.0285 4.79003 19.5189 4.90747 18.9327L4.95259 18.7038L4.72733 18.6434C4.71572 18.6401 3.56023 18.3206 3.04137 17.3054C2.68408 16.6068 2.701 15.7329 3.0918 14.7078L3.16711 14.5098L2.98365 14.4036C2.97071 14.3963 1.68617 13.6423 1.38759 12.4479C1.24162 11.8651 1.35807 11.2636 1.73328 10.6605C2.46744 9.48077 3.90857 8.97784 4.98842 8.76353C5.80651 8.6013 6.54798 8.57542 6.93878 8.57542C7.11991 8.57542 7.22607 8.58106 7.22906 8.58106L7.73564 8.60993L7.44835 8.19159C7.44304 8.18396 6.91987 7.41529 6.61798 6.33909C6.22054 4.92418 6.37314 3.67049 7.07148 2.61287C7.68057 1.68994 8.51891 1.327 9.28824 1.327H9.28857C9.67108 1.327 10.0363 1.41658 10.3482 1.57183C11.0439 1.91785 11.7084 2.73827 11.293 3.91134C10.7022 5.57905 11.8918 6.82312 13.1508 8.1405C13.9619 8.98879 14.8006 9.86593 15.2578 10.9259L15.2651 10.9425L15.2747 10.9581C15.2747 10.9581 15.2876 10.9796 15.3079 11.0174C15.6479 11.8126 15.8091 12.6752 15.7876 13.5845C15.769 14.3691 15.6151 15.1909 15.3301 16.0272C15.1625 16.5185 14.9688 16.9578 14.786 17.3234ZM17.8036 18.1126C17.4161 18.591 16.9988 18.8308 16.5562 18.8308C16.2902 18.8308 16.0151 18.7442 15.7318 18.5707C15.7209 18.5641 15.7096 18.5575 15.6983 18.5505L15.8114 18.3906L15.7975 18.38C15.9408 18.1481 16.1313 17.8167 16.329 17.4063C17.2592 15.5153 17.4009 13.9637 17.3289 12.9247C17.2612 11.952 17.0058 11.2699 16.8498 10.9338C16.8575 10.9328 16.8654 10.9322 16.8734 10.9315C16.9503 10.9246 17.0247 10.9212 17.0967 10.9212C18.5156 10.9212 18.903 12.2406 19.0065 13.0551C19.2268 14.7875 18.6987 17.0092 17.8036 18.1126Z" fill="#FF0097"/>
<path id="Vector_2" opacity="0.23" d="M17.8037 18.1125C17.4162 18.5909 16.9988 18.8307 16.5563 18.8307C16.2902 18.8307 16.0152 18.7442 15.7319 18.5707C15.7209 18.564 15.7096 18.5574 15.6984 18.5504L15.8115 18.3905L15.7976 18.3799C15.9409 18.148 16.1313 17.8166 16.329 17.4062C17.2593 15.5152 17.4009 13.9636 17.3289 12.9246C17.2612 11.9519 17.0058 11.2698 16.8499 10.9337C16.8575 10.9328 16.8655 10.9321 16.8734 10.9314C16.9504 10.9245 17.0247 10.9211 17.0967 10.9211C18.5156 10.9211 18.9031 12.2405 19.0066 13.055C19.2269 14.7874 18.6987 17.0091 17.8037 18.1125Z" fill="#FF0097"/>
<path id="Vector_3" opacity="0.23" d="M15.7876 13.5845C15.769 14.3691 15.6151 15.1908 15.3301 16.0272C15.1626 16.5185 14.9688 16.9577 14.7861 17.3233C14.6421 17.6063 14.4795 17.8976 14.2961 18.1962C14.1892 18.3653 14.1216 18.4596 14.1192 18.4626L13.9759 18.6589L13.9885 18.6686C13.1442 19.8605 11.8457 20.7848 10.3031 21.2854C9.52913 21.5366 8.74189 21.663 8.01369 21.663C7.35815 21.663 6.75072 21.5608 6.24314 21.3551C5.72063 21.1434 5.33812 20.8382 5.1059 20.4477C4.85709 20.0284 4.79007 19.5188 4.90751 18.9326L4.95263 18.7037L4.72737 18.6434C4.71576 18.64 3.56027 18.3206 3.04141 17.3054C2.68412 16.6067 2.70104 15.7329 3.09184 14.7078L3.16715 14.5097L2.98369 14.4036C2.97075 14.3963 1.68621 13.6422 1.38764 12.4479C1.24167 11.865 1.35811 11.2636 1.73332 10.6604C2.46749 9.48073 3.90861 8.9778 4.98846 8.76349C5.80656 8.60126 6.54802 8.57539 6.93882 8.57539C7.11996 8.57539 7.22612 8.58103 7.2291 8.58103L7.73569 8.60989L7.44839 8.19155C7.44308 8.18392 6.91991 7.41525 6.61802 6.33906C6.22058 4.92414 6.37319 3.67045 7.07152 2.61283C7.68062 1.6899 8.51895 1.32697 9.28828 1.32697H9.28861C9.67112 1.32697 10.0364 1.41654 10.3482 1.5718C11.0439 1.91781 11.7084 2.73823 11.293 3.9113C10.7022 5.57901 11.8919 6.82308 13.1509 8.14046C13.962 8.98875 14.8006 9.8659 15.2578 10.9258L15.2651 10.9424L15.2747 10.958C15.2747 10.958 15.2877 10.9796 15.3079 11.0174C15.6479 11.8126 15.8092 12.6752 15.7876 13.5845Z" fill="#FF0097"/>
</g>
</svg>
