<svg width="21" height="23" viewBox="0 0 21 23" fill="none" xmlns="http://www.w3.org/2000/svg">
<g id="Group 574">
<path id="Vector" d="M20.0962 6.38832C19.8197 5.44408 19.4207 4.63326 18.9422 4.04315C18.132 3.04315 17.2551 2.83339 16.6627 2.83339C16.4071 2.83339 16.1522 2.87122 15.8997 2.94656C15.6474 3.02191 15.3975 3.13475 15.1519 3.28443C15.1317 3.29671 15.1054 3.31298 15.0759 3.33223L14.9667 3.40292C14.4785 2.74942 13.8791 2.16794 13.1821 1.67275C12.4427 1.14736 11.6136 0.733488 10.7178 0.442748C9.82566 0.153004 8.89204 0 8.0175 0C7.59599 0 7.19473 0.0341852 6.81537 0.101892C6.43635 0.169598 6.07956 0.270826 5.74766 0.405244C4.94979 0.728178 4.35072 1.21938 3.96705 1.86558C3.69191 2.32858 3.54421 2.85695 3.52828 3.4235C2.97866 3.72287 2.29197 4.2393 1.86084 5.08264C1.58205 5.62761 1.44763 6.23565 1.46024 6.88981C1.46688 7.23332 1.51501 7.59177 1.60395 7.96084C1.53193 8.0219 1.45792 8.08828 1.38225 8.15931C0.716466 8.78659 0.284671 9.48291 0.0991413 10.2283C-0.13219 11.1586 0.0430511 12.1294 0.606609 13.0358C1.38723 14.2901 2.81371 15.154 4.73207 15.5347C5.01617 15.5911 5.29197 15.6329 5.55019 15.6638C5.47617 15.8626 5.40548 16.075 5.34275 16.2997C5.09748 17.1736 5.02214 18.0202 5.11906 18.8165C5.21962 19.6435 5.50472 20.4175 5.96672 21.1172C6.75629 22.314 7.96871 23 9.29264 23C9.86847 23 10.44 22.8672 10.9448 22.616C11.5874 22.2961 12.1134 21.7826 12.4254 21.1699C12.8184 20.3979 12.8612 19.5244 12.5495 18.6439C12.4091 18.2483 12.4496 17.9237 12.6932 17.4859C12.9916 16.9499 13.5379 16.3787 14.1164 15.7736C14.8057 15.0524 15.5691 14.2532 16.1277 13.2957L16.7921 13.3787C16.8048 13.3804 16.817 13.3817 16.8296 13.383L16.8423 13.3847L16.8618 13.3863C16.977 13.3966 17.0922 13.4019 17.2044 13.4019C18.2704 13.4019 19.1775 12.921 19.7583 12.0475C20.1081 11.5211 20.3345 10.8682 20.4314 10.1065C20.4715 9.79091 20.4921 9.45669 20.4921 9.11384C20.4921 8.21507 20.3554 7.27249 20.0962 6.38832ZM15.3159 11.9741C15.295 12.0143 15.282 12.0358 15.2814 12.0372L15.2717 12.0524L15.2644 12.0694C14.8071 13.1298 13.968 14.0076 13.1569 14.8563C11.897 16.1739 10.7072 17.4185 11.2979 19.087C11.7135 20.2605 11.0487 21.0813 10.353 21.4275C10.0411 21.5828 9.67531 21.6724 9.29264 21.6724C8.52297 21.6724 7.68427 21.3097 7.07458 20.386C6.37627 19.3279 6.2236 18.0737 6.62088 16.6581C6.92291 15.5815 7.4463 14.8125 7.45161 14.8048L7.74003 14.3867L7.23256 14.4152C7.22924 14.4155 7.12304 14.4212 6.94149 14.4212C6.55052 14.4212 5.80873 14.395 4.99061 14.2327C3.91029 14.0183 2.46854 13.5151 1.73406 12.3349C1.35935 11.7322 1.24252 11.1314 1.38756 10.549C1.68394 9.35778 2.97236 8.59741 2.98497 8.59011L3.16851 8.4839L3.09317 8.28576C2.70253 7.26021 2.6856 6.38599 3.04272 5.68702C3.56213 4.67142 4.71779 4.35181 4.72875 4.34882L4.95543 4.28908L4.90963 4.05908C4.79247 3.47262 4.85918 2.96283 5.10843 2.54331C5.34043 2.15267 5.7231 1.84733 6.24617 1.63558C6.75397 1.4298 7.36167 1.32758 8.0175 1.32758C8.74601 1.32758 9.53326 1.45403 10.3079 1.70528C11.8512 2.20644 13.1499 3.13077 13.9949 4.32327L13.9826 4.33289L14.1257 4.52937C14.1277 4.53236 14.1954 4.62595 14.3019 4.79489C14.4865 5.09525 14.6498 5.38832 14.7945 5.67308C14.977 6.03817 15.1702 6.47594 15.3371 6.96582C15.6222 7.80252 15.7762 8.62463 15.7948 9.40956C15.8164 10.318 15.6551 11.1796 15.3159 11.9741ZM19.1144 9.93926C19.0109 10.7541 18.6235 12.0743 17.2044 12.0743C17.1327 12.0743 17.0583 12.071 16.981 12.0641C16.9727 12.0631 16.9647 12.0624 16.9568 12.0614C17.1127 11.7252 17.3686 11.0428 17.436 10.0697C17.508 9.03053 17.3666 7.47892 16.4367 5.58779C16.1971 5.09028 15.968 4.7086 15.8207 4.47926C15.8134 4.46797 15.8064 4.45636 15.7994 4.44507C15.8127 4.43644 15.8263 4.42814 15.8396 4.42018C16.122 4.24726 16.3969 4.16097 16.6627 4.16097C17.1054 4.16097 17.523 4.4006 17.911 4.87952C18.6693 5.81447 19.1645 7.55128 19.1645 9.11384C19.1645 9.39662 19.1483 9.67375 19.1144 9.93926Z" fill="#FF0097"/>
<path id="Vector_2" opacity="0.23" d="M19.1645 9.11352C19.1645 9.39629 19.1483 9.67342 19.1144 9.93894C19.0109 10.7537 18.6235 12.074 17.2044 12.074C17.1327 12.074 17.0583 12.0707 16.981 12.0637C16.9727 12.0627 16.9647 12.0621 16.9568 12.0611C17.1127 11.7249 17.3686 11.0425 17.436 10.0694C17.508 9.03021 17.3666 7.4786 16.4367 5.58746C16.197 5.08995 15.968 4.70827 15.8207 4.47893C15.8134 4.46765 15.8064 4.45603 15.7994 4.44475C15.8127 4.43612 15.8263 4.42782 15.8396 4.41985C16.122 4.24694 16.3968 4.16064 16.6627 4.16064C17.1054 4.16064 17.523 4.40027 17.911 4.8792C18.6693 5.81415 19.1645 7.55095 19.1645 9.11352Z" fill="#FF0097"/>
<path id="Vector_3" opacity="0.23" d="M15.3159 11.974C15.295 12.0141 15.2821 12.0357 15.2814 12.037L15.2718 12.0523L15.2645 12.0692C14.8071 13.1296 13.9681 14.0075 13.1569 14.8562C11.8971 16.1738 10.7072 17.4184 11.298 19.0868C11.7135 20.2604 11.0487 21.0812 10.3531 21.4274C10.0411 21.5827 9.67536 21.6723 9.29268 21.6723C8.52302 21.6723 7.68432 21.3095 7.07463 20.3859C6.37632 19.3278 6.22365 18.0736 6.62093 16.658C6.92295 15.5814 7.44635 14.8124 7.45166 14.8047L7.74008 14.3865L7.23261 14.4151C7.22929 14.4154 7.12308 14.4211 6.94154 14.4211C6.55056 14.4211 5.80878 14.3948 4.99066 14.2325C3.91034 14.0181 2.46859 13.515 1.7341 12.3348C1.35939 11.732 1.24257 11.1313 1.3876 10.5488C1.68399 9.35766 2.9724 8.59729 2.98502 8.58998L3.16855 8.48378L3.09321 8.28564C2.70257 7.26008 2.68565 6.38587 3.04277 5.6869C3.56218 4.6713 4.71784 4.35168 4.72879 4.3487L4.95548 4.28895L4.90967 4.05895C4.79252 3.47249 4.85923 2.9627 5.10848 2.54319C5.34048 2.15254 5.72315 1.8472 6.24622 1.63545C6.75402 1.42968 7.36172 1.32745 8.01754 1.32745C8.74605 1.32745 9.53331 1.45391 10.3079 1.70515C11.8513 2.20631 13.15 3.13064 13.995 4.32314L13.9827 4.33276L14.1257 4.52925C14.1277 4.53223 14.1954 4.62583 14.302 4.79476C14.4865 5.09513 14.6498 5.38819 14.7945 5.67296C14.977 6.03804 15.1702 6.47581 15.3372 6.96569C15.6223 7.8024 15.7763 8.6245 15.7948 9.40943C15.8164 10.3178 15.6551 11.1794 15.3159 11.974Z" fill="#FF0097"/>
</g>
</svg>
