<svg width="23" height="20" viewBox="0 0 23 20" fill="none" xmlns="http://www.w3.org/2000/svg">
<path id="Vector" d="M21.8909 5.56851C21.5781 4.79584 21.1022 4.21577 20.4771 3.84374C20.0244 3.57525 19.5166 3.43217 18.9662 3.4177C18.6758 2.8849 18.1755 2.22026 17.3591 1.8029C16.8546 1.54502 16.2932 1.41415 15.6903 1.41415C15.3321 1.41415 14.9578 1.4611 14.5706 1.55402C14.5118 1.48457 14.4475 1.41287 14.3787 1.33955C13.771 0.694536 13.0964 0.276207 12.3742 0.0964633C12.1169 0.032476 11.8529 0 11.5896 0C10.9324 0 10.2812 0.198071 9.65391 0.588426C8.43911 1.34438 7.60213 2.72638 7.23332 4.5849C7.17866 4.86047 7.13782 5.12735 7.1076 5.37751C6.91531 5.30581 6.70952 5.23732 6.49216 5.17654C5.88605 5.00613 5.28926 4.91963 4.71949 4.91963C3.66418 4.91963 2.69022 5.20934 1.82462 5.78105C0.936836 6.3669 0.343265 7.17687 0.108216 8.12253C-0.0998229 8.96144 -0.00593193 9.84248 0.372847 10.6036C0.607896 11.0759 0.951949 11.4862 1.36771 11.7888C1.87832 12.1605 2.47993 12.357 3.1079 12.357C3.47479 12.357 3.84939 12.2901 4.22109 12.1586C4.36804 12.1065 4.50341 12.0811 4.63556 12.0811C5.33331 12.0811 6.14393 12.856 7.00213 13.6763C7.69956 14.3435 8.47287 15.0824 9.39956 15.6235L9.32143 16.2747C9.32014 16.2853 9.31886 16.2956 9.31789 16.3058L9.31661 16.3171L9.31468 16.3357C9.2121 17.4695 9.6359 18.4406 10.5082 19.0705C11.0343 19.4505 11.7018 19.6943 12.4919 19.7946C12.798 19.8335 13.1214 19.8531 13.4536 19.8531C14.3243 19.8531 15.2375 19.7206 16.0944 19.4698C17.0092 19.202 17.7948 18.8152 18.3665 18.3515C18.9668 17.8653 19.3417 17.3013 19.4803 16.6763C19.5826 16.2148 19.5993 15.4933 19.0983 14.6746L19.0951 14.6692L19.0919 14.664C19.0864 14.655 19.0806 14.6464 19.0752 14.6373L18.99 14.4975C19.6218 14.0251 20.1842 13.4451 20.6629 12.7714C21.172 12.0547 21.5729 11.2515 21.8546 10.3836C22.1205 9.56434 22.2684 8.70421 22.2826 7.89585C22.2974 7.02928 22.1655 6.24632 21.8909 5.56851ZM17.5562 17.3528C16.6507 18.0875 14.9674 18.5669 13.4536 18.5669C13.1796 18.5669 12.9115 18.5515 12.6542 18.5187C11.825 18.4132 10.4552 18.0042 10.5957 16.4518C10.5967 16.4438 10.5973 16.4361 10.5983 16.428C10.924 16.5795 11.5851 16.8271 12.5279 16.8927C12.6706 16.9026 12.8234 16.9081 12.9854 16.9081C13.9626 16.9081 15.2848 16.6991 16.8472 15.9354C17.3375 15.7007 17.7141 15.475 17.9401 15.33C17.9523 15.3222 17.9649 15.3145 17.9771 15.3068C17.9851 15.32 17.9932 15.3328 18.0012 15.3457C18.4481 16.0763 18.2983 16.7515 17.5562 17.3528ZM20.6314 9.98653C20.1459 11.4817 19.2504 12.7402 18.0951 13.5586L18.0858 13.5467L17.8957 13.6853C17.8928 13.6875 17.8015 13.7531 17.6372 13.8566C17.3472 14.0348 17.0645 14.1923 16.7899 14.3322C16.4359 14.5091 16.0105 14.6968 15.535 14.8589C14.7243 15.1351 13.9279 15.2843 13.1674 15.3023C13.116 15.3036 13.0648 15.3042 13.0137 15.3042C12.1902 15.3042 11.4076 15.148 10.6825 14.8386C10.6436 14.8184 10.623 14.8058 10.6218 14.8052L10.607 14.7959L10.5906 14.7888C9.56323 14.3457 8.71307 13.5328 7.89088 12.7467C6.84618 11.7479 5.84907 10.7949 4.63556 10.7949C4.36579 10.7949 4.08572 10.8418 3.79183 10.946C3.54778 11.0325 3.31948 11.0708 3.1079 11.0708C2.33459 11.0708 1.78764 10.5598 1.5243 10.0303C1.07124 9.12029 1.19375 7.73829 2.5333 6.85436C3.18765 6.42253 3.91916 6.20581 4.71949 6.20581C5.17318 6.20581 5.64875 6.27558 6.14489 6.41481C7.18798 6.70742 7.933 7.21449 7.9404 7.21932L8.34554 7.49874L8.31789 7.00742C8.31725 6.99745 8.26451 5.99584 8.49474 4.83539C8.70246 3.78876 9.18992 2.39197 10.3333 1.68039C10.7552 1.41801 11.1758 1.28618 11.5896 1.28618C11.7488 1.28618 11.907 1.30579 12.0636 1.3447C13.2176 1.63184 13.9542 2.88007 13.9613 2.89229L14.0642 3.07011L14.2562 2.99712C14.7751 2.79937 15.2546 2.70033 15.6903 2.70033C16.0887 2.70033 16.4504 2.78297 16.7739 2.94824C17.7578 3.45114 18.0674 4.57108 18.0703 4.58169L18.1282 4.8013L18.351 4.75693C18.5324 4.72059 18.706 4.70259 18.8719 4.70259C19.2256 4.70259 19.5427 4.7849 19.8195 4.94921C20.198 5.17429 20.4938 5.54503 20.699 6.05147C21.1195 7.08973 21.0941 8.5608 20.6314 9.98653Z" fill="#FF0097"/>
</svg>
