<svg width="25" height="23" viewBox="0 0 25 23" fill="none" xmlns="http://www.w3.org/2000/svg">
<path id="Vector" d="M12.0532 3.79714L14.6926 9.04456L20.4804 9.93488L16.3197 14.0464L17.2038 19.8518L12.0509 17.1188L6.89796 19.8518L7.78242 14.0421L3.62603 9.93488L9.41389 9.04456L12.0532 3.79714ZM10.3929 2.96188L8.18424 7.35334L3.34331 8.09801L0.235003 8.57597C0.0100803 8.61073 -0.0793422 8.88641 0.0827117 9.04651L2.31984 11.2571L5.80263 14.6985L5.0607 19.5718L4.58742 22.6809C4.55306 22.9058 4.78969 23.0737 4.9908 22.9671L7.76914 21.4934L12.0513 19.2223L16.3334 21.4934L19.1117 22.9671C19.3128 23.0737 19.5495 22.9058 19.5151 22.6809L19.0418 19.5718L18.3003 14.7024L21.7874 11.2567L24.0245 9.04612C24.1862 8.88641 24.0968 8.61033 23.8722 8.57558L20.7639 8.09762L15.923 7.35295L13.7144 2.96149L12.3004 0.152292C12.1981 -0.0507639 11.908 -0.0507639 11.8057 0.152292L10.3925 2.96188H10.3929Z" fill="#FF0097"/>
</svg>
