<svg width="23" height="20" viewBox="0 0 23 20" fill="none" xmlns="http://www.w3.org/2000/svg">
<g id="Frame" clip-path="url(#clip0_18_106)">
<path id="Vector" d="M10.3815 0C7.86697 0 5.81342 2.10721 5.81342 4.69501C5.81342 7.28281 7.86098 9.39618 10.3815 9.39618C12.9021 9.39618 14.9436 7.28897 14.9436 4.69501C14.9436 2.10105 12.9021 0 10.3815 0ZM10.3815 7.6032C8.82489 7.6032 7.55564 6.29698 7.55564 4.69501C7.55564 3.09304 8.82489 1.78681 10.3815 1.78681C11.9382 1.78681 13.2074 3.09304 13.2074 4.69501C13.2074 6.29698 11.9382 7.6032 10.3815 7.6032Z" fill="#FF0097"/>
<path id="Vector_2" d="M20.8708 17.5786C20.7211 17.2089 20.5535 16.8515 20.3619 16.5003L17.9551 18.9772C18.8232 18.8108 19.6674 18.6075 20.4936 18.3795C20.8289 18.2871 21.0025 17.9113 20.8708 17.5786ZM10.5312 10.5114C10.5312 10.5114 10.4773 10.5114 10.4534 10.5114C10.4294 10.5114 10.3995 10.5114 10.3755 10.5114C5.7296 10.5114 1.74224 13.4258 0.0419195 17.5786C-0.0897953 17.9051 0.0838287 18.2871 0.419103 18.3795C3.40065 19.2052 6.72345 19.6734 10.2199 19.6858H10.6929C11.1479 19.6858 11.5969 19.6734 12.0459 19.655L10.2678 17.825C10.0642 17.825 9.86066 17.825 9.66907 17.8127C9.24998 17.8004 8.84286 17.7819 8.4537 17.7511C6.3762 17.6463 4.35857 17.3752 2.41279 16.9378C3.66408 14.8614 5.62782 13.3703 7.89092 12.7295C7.90888 12.7295 7.92684 12.7172 7.94481 12.7172C8.23817 12.6248 8.58542 12.5508 8.95661 12.5015C9.41762 12.4276 9.89059 12.3906 10.3696 12.3906H10.5252C10.9683 12.3906 11.3993 12.4214 11.8244 12.4831C11.8244 12.4831 11.8244 12.4831 11.8304 12.4831C12.2734 12.5385 12.6686 12.6248 13.0098 12.7295C13.0218 12.7295 13.0338 12.7418 13.0458 12.7418C14.1773 13.0684 15.231 13.6044 16.159 14.3253L17.4582 12.9883C15.5483 11.4356 13.1356 10.5052 10.5132 10.5052L10.5312 10.5114Z" fill="#FF0097"/>
<path id="Vector_3" d="M22.0682 12.8466L18.7155 16.2908L17.7576 17.2767L17.6797 17.3568L16.0453 19.0388L15.1951 19.9137C15.1412 19.9692 15.0754 19.9938 15.0095 19.9938C14.9436 19.9938 14.8718 19.9692 14.8179 19.9137L12.9081 17.9483L11.3454 16.3401C11.0281 16.0074 11.0281 15.4775 11.3454 15.1448C11.5071 14.9784 11.7166 14.8983 11.9262 14.8983C12.1357 14.8983 12.3453 14.9784 12.5069 15.1448L15.0095 17.7203L16.7158 15.9643L17.6558 14.9969L20.9127 11.6451C21.0744 11.4787 21.2839 11.3987 21.4935 11.3987C21.703 11.3987 21.9126 11.4787 22.0742 11.6451C22.3915 11.9778 22.3915 12.5077 22.0742 12.8404L22.0682 12.8466Z" fill="#FF0097"/>
</g>
<defs>
<clipPath id="clip0_18_106">
<rect width="22.3077" height="20" fill="white"/>
</clipPath>
</defs>
</svg>
