<svg width="18" height="23" viewBox="0 0 18 23" fill="none" xmlns="http://www.w3.org/2000/svg">
<path id="Vector" d="M14.6948 12.4647C14.3997 12.4647 14.1161 12.5151 13.8518 12.6071C13.3525 12.2259 12.7154 11.8821 11.9429 11.5781C11.7194 11.4902 11.5008 11.4119 11.2929 11.343C11.2673 10.925 11.1414 10.5338 10.9391 10.1926C10.938 10.1904 10.9369 10.1886 10.9354 10.1863C10.9176 10.1567 10.899 10.1274 10.8801 10.0984C10.8767 10.0933 10.8738 10.0881 10.8704 10.0832C10.8526 10.0565 10.8344 10.0302 10.8155 10.0043C10.8106 9.99721 10.8058 9.99017 10.8006 9.98349C10.7828 9.95939 10.7642 9.93528 10.7457 9.91192C10.739 9.90376 10.7327 9.89523 10.7264 9.88707C10.7086 9.86482 10.69 9.84332 10.6714 9.82181C10.6636 9.81254 10.6558 9.80364 10.6477 9.79437C10.6295 9.77397 10.6109 9.75432 10.5924 9.73429C10.5831 9.72465 10.5742 9.71501 10.5645 9.70537C10.5463 9.68683 10.5278 9.66828 10.5088 9.65048C10.4984 9.64047 10.488 9.63046 10.4773 9.62045C10.4587 9.60339 10.4402 9.5867 10.4212 9.57001C10.4097 9.55963 10.3978 9.54962 10.386 9.53961C10.3674 9.52403 10.3485 9.50846 10.3295 9.49325C10.3169 9.48287 10.3039 9.47286 10.2909 9.46284C10.2724 9.44838 10.2534 9.43429 10.2341 9.42057C10.2204 9.41056 10.2063 9.40055 10.1922 9.3909C10.1732 9.37792 10.1543 9.36495 10.135 9.35234C10.1202 9.3427 10.1049 9.33305 10.0901 9.32341C10.0712 9.31155 10.0522 9.29968 10.0329 9.28818C10.017 9.27891 10.001 9.26964 9.98466 9.26037C9.96572 9.24962 9.94642 9.23886 9.92712 9.22885C9.91004 9.21995 9.89296 9.21105 9.87589 9.20252C9.85695 9.19288 9.83765 9.18324 9.81835 9.17434C9.80053 9.16581 9.78234 9.15802 9.76414 9.14986C9.74484 9.14134 9.72591 9.13281 9.7066 9.12502C9.68767 9.11723 9.66874 9.10981 9.64981 9.1024C9.6305 9.09498 9.61157 9.08756 9.59227 9.08052C9.57259 9.07347 9.55254 9.0668 9.5325 9.06012C9.51356 9.05382 9.49426 9.04714 9.47495 9.04158C9.45417 9.03528 9.43301 9.02971 9.41222 9.02378C9.39328 9.01859 9.37435 9.01303 9.35542 9.00821C9.33352 9.00264 9.31161 8.99782 9.28934 8.993C9.27078 8.98892 9.25184 8.98447 9.23328 8.98039C9.21027 8.97557 9.18688 8.97187 9.16349 8.96779C9.1453 8.96482 9.12711 8.96111 9.10892 8.95852C9.08405 8.95481 9.0588 8.95184 9.03393 8.94887C9.01686 8.94665 8.99978 8.94442 8.9827 8.94257C8.95449 8.9396 8.9259 8.93812 8.89769 8.93627C8.88321 8.93515 8.8691 8.93367 8.85463 8.93293C8.81156 8.9307 8.76813 8.92959 8.7247 8.92959C8.68497 8.92959 8.64562 8.9307 8.60627 8.93256C8.59811 8.93256 8.58994 8.9333 8.58214 8.93367C8.54428 8.93589 8.50641 8.93849 8.46892 8.9422C8.46186 8.94294 8.45481 8.94368 8.44776 8.94442C8.41323 8.94813 8.37908 8.95258 8.3453 8.9574C8.33973 8.95815 8.33416 8.95889 8.32822 8.95963C8.29184 8.96519 8.25546 8.97187 8.21982 8.97891C8.21054 8.98077 8.20163 8.98262 8.19235 8.98447C8.15671 8.99189 8.12144 9.00005 8.08655 9.00895C8.08024 9.01043 8.0743 9.01229 8.06799 9.01414C8.03755 9.0223 8.00747 9.03083 7.97778 9.03973C7.9685 9.04269 7.95884 9.04529 7.94956 9.04826C7.91727 9.05864 7.88497 9.06939 7.85304 9.08089C7.84228 9.0846 7.83188 9.08868 7.82112 9.09276C7.79439 9.10277 7.76803 9.11315 7.74204 9.12391C7.73091 9.12873 7.71977 9.13318 7.70826 9.138C7.6819 9.14949 7.65555 9.16136 7.62956 9.1736C7.61731 9.17953 7.60469 9.18546 7.59244 9.1914C7.5646 9.20512 7.53712 9.21921 7.51002 9.23367C7.4974 9.24035 7.48478 9.24776 7.47216 9.25444C7.45397 9.26482 7.43578 9.2752 7.41759 9.28596C7.40311 9.29449 7.38826 9.30302 7.37415 9.31192C7.35114 9.32601 7.32849 9.34047 7.30622 9.3553C7.29137 9.36495 7.27689 9.37496 7.26241 9.38497C7.24756 9.39535 7.23309 9.40574 7.21824 9.41612C7.19559 9.43244 7.17295 9.44949 7.15067 9.46655C7.13879 9.47582 7.12728 9.48472 7.1154 9.49399C7.09981 9.50623 7.08459 9.51884 7.06937 9.53145C7.05675 9.5422 7.04413 9.55333 7.03151 9.56445C7.00886 9.58411 6.98659 9.60413 6.96505 9.62453C6.95689 9.63231 6.94872 9.6401 6.94055 9.64789C6.91383 9.67348 6.88784 9.69981 6.86222 9.72651C6.85591 9.73318 6.8496 9.73948 6.84366 9.74616C6.82844 9.76248 6.81322 9.77916 6.798 9.79622C6.79429 9.8003 6.79058 9.80475 6.78686 9.8092C6.75939 9.84035 6.73304 9.87224 6.70705 9.90487C6.70185 9.91155 6.69628 9.91822 6.69109 9.9249C6.6625 9.96161 6.63466 9.99944 6.60793 10.0376C6.04032 9.84183 5.44226 9.58893 4.95669 9.29189C5.19205 8.904 5.32755 8.44937 5.32755 7.96395C5.32755 6.79695 4.54536 5.8098 3.47733 5.49682C3.49441 5.37926 3.52188 5.25466 3.56383 5.12487C3.66183 5.13637 3.76095 5.14267 3.86193 5.14267C4.99233 5.14267 5.95419 4.41065 6.29944 3.39643H11.5787C11.924 4.41065 12.8858 5.14267 14.0162 5.14267C14.0448 5.14267 14.0734 5.14156 14.102 5.14045C14.1454 5.26097 14.1733 5.37667 14.19 5.48569C13.1019 5.78606 12.3 6.78286 12.3 7.96432C12.3 9.38237 13.4549 10.5357 14.8742 10.5357C16.2934 10.5357 17.4483 9.382 17.4483 7.96432C17.4483 6.90486 16.8034 5.99299 15.885 5.59991C15.872 5.27543 15.8123 4.91535 15.6727 4.53748C16.2332 4.06541 16.59 3.35935 16.59 2.57171C16.59 1.15365 15.4351 0.00037083 14.0159 0.00037083C12.8959 0.00037083 11.941 0.71904 11.588 1.71843H6.28978C5.93637 0.718669 4.98156 0 3.86156 0C2.44196 0 1.28706 1.15365 1.28706 2.57134C1.28706 3.27888 1.57477 3.92079 2.03955 4.38618C1.87361 4.81375 1.79973 5.22055 1.78006 5.58396C0.841583 5.96814 0.178563 6.89003 0.178563 7.96432C0.178563 9.38237 1.33347 10.5357 2.75269 10.5357C3.04782 10.5357 3.33144 10.4852 3.59575 10.3933C4.09506 10.7745 4.73209 11.1182 5.50463 11.4223C5.72811 11.5102 5.94677 11.5884 6.15466 11.6574C6.18027 12.0753 6.30612 12.4666 6.50844 12.8077C6.50955 12.81 6.51067 12.8118 6.51215 12.814C6.52997 12.8437 6.54853 12.873 6.56747 12.9019C6.57081 12.9071 6.57378 12.9123 6.57712 12.9171C6.59494 12.9438 6.61313 12.9702 6.63206 12.9961C6.63689 13.0032 6.64171 13.0102 6.64691 13.0169C6.66473 13.041 6.68329 13.0651 6.70185 13.0885C6.70853 13.0966 6.71485 13.1051 6.72116 13.1133C6.73898 13.1355 6.75754 13.1571 6.7761 13.1786C6.78389 13.1878 6.79169 13.1967 6.79986 13.206C6.81805 13.2264 6.83661 13.2461 6.85517 13.2661C6.86445 13.2757 6.87373 13.2857 6.88301 13.295C6.9012 13.3135 6.91976 13.3321 6.9387 13.3499C6.94909 13.3599 6.95949 13.3699 6.97025 13.3799C6.98881 13.397 7.00738 13.4137 7.02631 13.4304C7.03782 13.4407 7.0497 13.4508 7.06158 13.4608C7.08014 13.4763 7.09907 13.4919 7.118 13.5071C7.13063 13.5175 7.14362 13.5275 7.15661 13.5375C7.17517 13.552 7.19411 13.5661 7.21341 13.5798C7.22715 13.5898 7.24125 13.5998 7.25536 13.6095C7.27429 13.6224 7.29322 13.6354 7.31253 13.648C7.32738 13.6577 7.3426 13.6673 7.35745 13.677C7.37638 13.6888 7.39531 13.7007 7.41462 13.7122C7.43058 13.7215 7.44654 13.7307 7.46288 13.74C7.48181 13.7508 7.50111 13.7615 7.52042 13.7715C7.5375 13.7804 7.55457 13.7893 7.57165 13.7978C7.59058 13.8075 7.60989 13.8171 7.62919 13.826C7.64701 13.8346 7.6652 13.8423 7.68339 13.8505C7.70269 13.859 7.72163 13.8676 7.74093 13.8754C7.75986 13.8831 7.7788 13.8906 7.79773 13.898C7.81703 13.9054 7.83597 13.9128 7.85527 13.9199C7.87495 13.9269 7.89499 13.9336 7.91504 13.9402C7.93397 13.9466 7.95327 13.9532 7.97258 13.9588C7.99337 13.9651 8.01453 13.9707 8.03532 13.9766C8.05425 13.9818 8.07318 13.9873 8.09212 13.9922C8.11402 13.9977 8.13592 14.0025 8.15819 14.0074C8.17676 14.0114 8.19569 14.0159 8.21425 14.02C8.23727 14.0248 8.26066 14.0285 8.28404 14.0326C8.30223 14.0356 8.32042 14.0393 8.33861 14.0419C8.36349 14.0456 8.38873 14.0485 8.4136 14.0515C8.43068 14.0537 8.44776 14.0559 8.46483 14.0578C8.49305 14.0608 8.52163 14.0623 8.54984 14.0641C8.56432 14.0652 8.57843 14.0667 8.59291 14.0674C8.63597 14.0697 8.67941 14.0708 8.72284 14.0708C8.76256 14.0708 8.80191 14.0697 8.84126 14.0678C8.84943 14.0678 8.8576 14.0671 8.86539 14.0667C8.90326 14.0645 8.94112 14.0619 8.97862 14.0582C8.98567 14.0574 8.99272 14.0567 8.99978 14.0559C9.0343 14.0522 9.06846 14.0478 9.10224 14.043C9.10781 14.0422 9.11337 14.0415 9.11931 14.0407C9.15569 14.0352 9.19208 14.0285 9.22771 14.0215C9.237 14.0196 9.2459 14.0178 9.25519 14.0159C9.29082 14.0085 9.32609 14.0003 9.36099 13.9914C9.3673 13.9899 9.37324 13.9881 9.37955 13.9862C9.40999 13.9781 9.44006 13.9695 9.46976 13.9606C9.47904 13.9577 9.48869 13.9551 9.49797 13.9521C9.53027 13.9417 9.56257 13.931 9.59449 13.9195C9.60526 13.9158 9.61565 13.9117 9.62642 13.9076C9.65315 13.8976 9.6795 13.8872 9.70549 13.8765C9.71663 13.8716 9.72776 13.8672 9.73927 13.8624C9.76563 13.8509 9.79199 13.839 9.81797 13.8268C9.83022 13.8208 9.84285 13.8149 9.8551 13.809C9.88294 13.7953 9.91041 13.7812 9.93751 13.7667C9.95013 13.76 9.96275 13.7526 9.97538 13.7459C9.99357 13.7355 10.0118 13.7252 10.0299 13.7144C10.0444 13.7059 10.0593 13.6974 10.0734 13.6885C10.0964 13.6744 10.119 13.6599 10.1413 13.6451C10.1562 13.6354 10.1706 13.6254 10.1851 13.6154C10.2 13.605 10.2144 13.5946 10.2293 13.5843C10.2519 13.5679 10.2746 13.5509 10.2969 13.5338C10.3087 13.5245 10.3203 13.5156 10.3321 13.5064C10.3477 13.4941 10.3629 13.4815 10.3782 13.4689C10.3908 13.4582 10.4034 13.447 10.416 13.4359C10.4387 13.4163 10.4609 13.3962 10.4825 13.3758C10.4906 13.3681 10.4988 13.3603 10.507 13.3525C10.5337 13.3269 10.5597 13.3006 10.5853 13.2739C10.5916 13.2676 10.5979 13.2609 10.6039 13.2546C10.6191 13.2383 10.6343 13.2216 10.6495 13.2045C10.6532 13.2004 10.657 13.196 10.6607 13.1915C10.6881 13.1604 10.7145 13.1285 10.7405 13.0959C10.7457 13.0892 10.7513 13.0825 10.7564 13.0758C10.785 13.0391 10.8129 13.0013 10.8396 12.9631C11.4072 13.1589 12.0053 13.4118 12.4908 13.7088C12.2555 14.0967 12.12 14.5514 12.12 15.0368C12.12 16.2038 12.9022 17.1909 13.9702 17.5039C13.9531 17.6215 13.9257 17.7461 13.8837 17.8759C13.7857 17.8644 13.6866 17.8581 13.5856 17.8581C12.4552 17.8581 11.4933 18.5901 11.1481 19.6043H5.86881C5.52356 18.5901 4.5617 17.8581 3.4313 17.8581C3.40271 17.8581 3.37413 17.8592 3.34554 17.8603C3.30211 17.7398 3.27427 17.6241 3.25756 17.5151C4.34564 17.2147 5.1475 16.2179 5.1475 15.0364C5.1475 13.6184 3.9926 12.4651 2.57338 12.4651C1.15416 12.4651 0 13.618 0 15.0361C0 16.0955 0.64483 17.0074 1.56326 17.4005C1.57625 17.7249 1.63602 18.085 1.7756 18.4629C1.21504 18.935 0.858288 19.641 0.858288 20.4287C0.858288 21.8467 2.01319 23 3.43241 23C4.55242 23 5.50723 22.2813 5.86027 21.2819H11.1585C11.5115 22.2817 12.4663 23 13.5864 23C15.0059 23 16.1605 21.8463 16.1605 20.4287C16.1605 19.7211 15.8728 19.0792 15.408 18.6138C15.5739 18.1863 15.6478 17.7795 15.6675 17.416C16.606 17.0319 17.269 16.11 17.269 15.0357C17.269 13.6176 16.1141 12.4643 14.6948 12.4643V12.4647ZM15.7673 7.96469C15.7673 8.4579 15.3671 8.85765 14.8734 8.85765C14.3797 8.85765 13.9795 8.4579 13.9795 7.96469C13.9795 7.47149 14.3797 7.07173 14.8734 7.07173C15.3671 7.07173 15.7673 7.47149 15.7673 7.96469ZM14.0155 1.67875C14.5092 1.67875 14.9094 2.0785 14.9094 2.57171C14.9094 3.06491 14.5092 3.46467 14.0155 3.46467C13.5218 3.46467 13.1216 3.06491 13.1216 2.57171C13.1216 2.0785 13.5218 1.67875 14.0155 1.67875ZM3.86156 1.67875C4.35529 1.67875 4.75548 2.0785 4.75548 2.57171C4.75548 3.06491 4.35529 3.46467 3.86156 3.46467C3.36782 3.46467 2.96763 3.06491 2.96763 2.57171C2.96763 2.0785 3.36782 1.67875 3.86156 1.67875ZM3.34183 8.63626L2.81617 8.85505C2.79538 8.85654 2.77422 8.85765 2.75306 8.85765C2.25932 8.85765 1.85913 8.4579 1.85913 7.96469C1.85913 7.47149 2.25932 7.07173 2.75306 7.07173C3.2468 7.07173 3.64698 7.47149 3.64698 7.96469C3.64698 8.23243 3.52856 8.47273 3.34183 8.63626ZM7.8304 11.5002C7.8304 11.007 8.23059 10.6072 8.72432 10.6072C9.21806 10.6072 9.61825 11.007 9.61825 11.5002C9.61825 11.9934 9.21806 12.3931 8.72432 12.3931C8.23059 12.3931 7.8304 11.9934 7.8304 11.5002ZM1.68057 15.0361C1.68057 14.5428 2.08076 14.1431 2.57449 14.1431C3.06823 14.1431 3.46842 14.5428 3.46842 15.0361C3.46842 15.5293 3.06823 15.929 2.57449 15.929C2.08076 15.929 1.68057 15.5293 1.68057 15.0361ZM3.43241 21.322C2.93867 21.322 2.53848 20.9222 2.53848 20.429C2.53848 19.9358 2.93867 19.5361 3.43241 19.5361C3.92615 19.5361 4.32634 19.9358 4.32634 20.429C4.32634 20.9222 3.92615 21.322 3.43241 21.322ZM13.5864 21.322C13.0926 21.322 12.6924 20.9222 12.6924 20.429C12.6924 19.9358 13.0926 19.5361 13.5864 19.5361C14.0801 19.5361 14.4803 19.9358 14.4803 20.429C14.4803 20.9222 14.0801 21.322 13.5864 21.322ZM14.6948 15.929C14.2011 15.929 13.8009 15.5293 13.8009 15.0361C13.8009 14.7683 13.9193 14.528 14.1061 14.3645L14.6317 14.1457C14.6525 14.1442 14.6737 14.1431 14.6948 14.1431C15.1886 14.1431 15.5888 14.5428 15.5888 15.0361C15.5888 15.5293 15.1886 15.929 14.6948 15.929Z" fill="#FF0097"/>
</svg>
