<svg width="25" height="20" viewBox="0 0 25 20" fill="none" xmlns="http://www.w3.org/2000/svg">
<g id="Group 561">
<path id="Vector" d="M12.5002 1.99537C13.8942 1.99537 15.0291 3.10938 15.0291 4.4777C15.0291 5.84602 13.8942 6.96045 12.5002 6.96045C11.1063 6.96045 9.97094 5.84602 9.97094 4.4777C9.97094 3.10938 11.1063 1.99537 12.5002 1.99537ZM12.5002 0C9.98478 0 7.93817 2.00853 7.93817 4.4777C7.93817 6.94687 9.98478 8.95583 12.5002 8.95583C15.0157 8.95583 17.0618 6.94687 17.0618 4.4777C17.0618 2.00853 15.0157 0 12.5002 0Z" fill="#FF0097"/>
<path id="Vector_2" d="M12.5893 11.9281C13.1018 11.9281 13.6079 11.9629 14.1052 12.0308C14.1083 12.0308 14.1109 12.0317 14.1139 12.0321C14.5793 12.0958 15.0373 12.1884 15.4849 12.3089C15.4992 12.3127 15.5139 12.3161 15.5277 12.3204C15.529 12.3208 15.5299 12.3208 15.5308 12.3212C18.1461 13.0357 20.409 14.6872 21.8583 16.9755C19.611 17.4566 17.2742 17.7584 14.8682 17.8743C14.405 17.9074 13.9193 17.9308 13.4163 17.9439C13.1183 17.9516 12.8142 17.9558 12.5054 17.9558C12.1966 17.9558 11.8852 17.952 11.5842 17.9435C11.0946 17.9308 10.6205 17.9079 10.1686 17.876C7.75002 17.761 5.4011 17.4587 3.14213 16.9755C4.59967 14.6737 6.88112 13.0166 9.51593 12.3093C9.53713 12.3034 9.55832 12.2975 9.58038 12.2924C9.58038 12.2919 10.3602 12.1102 10.7594 12.0508C10.7611 12.0508 10.7628 12.0508 10.7646 12.0499C11.3035 11.9697 11.854 11.9285 12.4111 11.9285C12.441 11.9285 12.4708 11.929 12.5006 11.929C12.5305 11.929 12.5599 11.9285 12.5897 11.9285M12.5897 9.88391H12.4111C11.7567 9.88391 11.098 9.93273 10.4532 10.0283L10.3559 10.0427L10.3463 10.0448C10.1452 10.0779 9.89091 10.128 9.57259 10.1968C9.43506 10.2265 9.31525 10.2533 9.2387 10.2707C9.19545 10.2809 9.15998 10.2885 9.13533 10.294L9.10246 10.3017C9.09684 10.3029 9.09078 10.3042 9.08516 10.3059C9.04105 10.3169 8.99693 10.328 8.95238 10.3407C7.39191 10.7614 5.94259 11.4556 4.64421 12.404C3.33589 13.3597 2.2356 14.5348 1.37319 15.8959L0.0467029 17.9898C-0.0661805 18.1685 0.0345928 18.4033 0.243924 18.4479L2.69795 18.973C5.06245 19.4791 7.53377 19.7967 10.0436 19.9172C10.5284 19.9508 11.0275 19.9745 11.5275 19.9873C11.8406 19.9958 12.1698 20.0004 12.5054 20.0004C12.841 20.0004 13.1567 19.9962 13.472 19.9877C13.9915 19.9741 14.504 19.9499 14.9945 19.9151C17.4926 19.7933 19.9514 19.4761 22.302 18.9726L24.7556 18.447C24.9654 18.402 25.0662 18.1673 24.9529 17.9889L23.6268 15.8955C21.9426 13.2361 19.3428 11.2934 16.2898 10.4078L16.2297 10.3781L16.0225 10.3331C15.4962 10.1917 14.9542 10.0826 14.4119 10.0083C14.4075 10.0079 14.4037 10.007 14.3985 10.0066H14.3946L14.3907 10.0058C13.7969 9.92466 13.1905 9.88348 12.588 9.88348H12.5889L12.5897 9.88391Z" fill="#FF0097"/>
</g>
</svg>
