<svg width="18" height="20" viewBox="0 0 18 20" fill="none" xmlns="http://www.w3.org/2000/svg">
<g id="Group 562">
<path id="Vector" d="M15.5072 11.6772V15.5194H9.67673V11.6772H15.5072ZM15.5072 10.0675H8.30694C8.17446 10.0675 8.06744 10.1749 8.06744 10.307V16.8892C8.06744 17.0217 8.17483 17.1287 8.30694 17.1287H16.877C17.0095 17.1287 17.1165 17.0213 17.1165 16.8892V10.307C17.1165 10.1746 17.0091 10.0675 16.877 10.0675H15.5072Z" fill="#FF0097"/>
<g id="Group">
<path id="Vector_2" d="M5.45223 13.7533V18.3911H1.60965V13.7533H5.45223ZM5.45223 12.1436H0.239492C0.107015 12.1436 0 12.251 0 12.3831V19.7605C0 19.893 0.107384 20 0.239492 20H6.82202C6.9545 20 7.06152 19.8926 7.06152 19.7605V12.3831C7.06152 12.2506 6.95413 12.1436 6.82202 12.1436H5.45186H5.45223Z" fill="#FF0097"/>
<path id="Vector_3" d="M5.45223 3.69829V9.5284H1.60965V3.69829H5.45223ZM5.45223 2.08864H0.239492C0.107015 2.08864 0 2.19602 0 2.32813V10.8978C0 11.0303 0.107384 11.1373 0.239492 11.1373H6.82202C6.9545 11.1373 7.06152 11.0299 7.06152 10.8978V2.3285C7.06152 2.19602 6.95413 2.08901 6.82202 2.08901H5.45186L5.45223 2.08864Z" fill="#FF0097"/>
</g>
<path id="Vector_4" d="M13.5197 1.60965V7.43976H9.67709V1.60965H13.5197ZM13.5197 0H8.3073C8.17482 0 8.06781 0.107384 8.06781 0.239492V8.80918C8.06781 8.94166 8.17519 9.04867 8.3073 9.04867H14.8898C15.0223 9.04867 15.1293 8.94129 15.1293 8.80918V0.239492C15.1293 0.107015 15.0219 0 14.8898 0H13.5197Z" fill="#FF0097"/>
</g>
</svg>
