<svg width="25" height="23" viewBox="0 0 25 23" fill="none" xmlns="http://www.w3.org/2000/svg">
<path id="Vector" d="M21.0074 17.042C20.7044 17.042 20.4116 17.0876 20.136 17.172C19.9763 16.7244 19.7313 16.317 19.4195 15.9703C20.719 15.1555 21.6554 13.8224 21.9468 12.2681C23.4463 11.0601 24.3415 9.22804 24.3415 7.26062C24.3415 6.39412 24.1713 5.5524 23.8355 4.75888C23.5118 3.99367 23.0487 3.30631 22.459 2.71715C21.8694 2.12754 21.1825 1.66444 20.4173 1.34066C19.6238 1.00494 18.7821 0.834651 17.9156 0.834651C17.1313 0.834651 16.3692 0.973538 15.6549 1.24247C15.3603 1.02617 15.0476 0.834651 14.7216 0.672321C13.8264 0.226024 12.8621 0 11.8563 0C10.7125 0 9.58809 0.305198 8.60526 0.882863C8.11871 1.16904 7.6733 1.51759 7.27964 1.91744C7.06689 1.89311 6.85148 1.88073 6.6343 1.88073C5.14104 1.88073 3.73669 2.46237 2.68044 3.51863C1.62418 4.57488 1.04254 5.97879 1.04254 7.47205C1.04254 7.71532 1.05802 7.95638 1.08898 8.19479C0.891267 8.4562 0.716995 8.7353 0.570146 9.02723C0.197274 9.77032 0 10.605 0 11.4405C0 12.8789 0.559529 14.2302 1.57509 15.2458C2.59065 16.2613 3.94236 16.8208 5.38033 16.8208C5.5953 16.8208 5.81027 16.808 6.02346 16.7824C6.41491 17.1804 6.85811 17.5277 7.34201 17.813C8.32749 18.3942 9.45628 18.7016 10.6059 18.7016C11.483 18.7016 12.3428 18.5229 13.1386 18.1814C13.135 18.2469 13.1328 18.3128 13.1328 18.3791C13.1328 20.3669 14.7495 21.9836 16.7368 21.9836C17.3569 21.9836 17.9408 21.8265 18.4508 21.5501C18.9723 22.4179 19.9232 23 21.0074 23C22.6492 23 23.9846 21.6629 23.9846 20.0192C23.9846 18.3756 22.6488 17.0416 21.0074 17.0416V17.042ZM6.80282 14.4673C6.37112 14.6721 5.88723 14.7822 5.38033 14.7822C3.53278 14.7822 2.03908 13.2885 2.03908 11.441C2.03908 10.3626 2.54862 9.40453 3.33816 8.79413C3.17229 8.38455 3.08117 7.94002 3.08117 7.47205C3.08117 5.51082 4.67263 3.91936 6.6343 3.91936C7.14385 3.91936 7.62774 4.0264 8.06652 4.22147C8.82332 2.91619 10.2392 2.03908 11.8563 2.03908C13.2624 2.03908 14.5124 2.69857 15.3183 3.72784C16.0455 3.18866 16.9416 2.87373 17.916 2.87373C20.3386 2.87373 22.3034 4.8385 22.3034 7.26106C22.3034 8.93036 21.3749 10.379 20.0046 11.1225V11.2326C20.0046 13.1116 18.5463 14.6469 16.6996 14.772H16.6581C16.5948 14.7742 16.5325 14.7773 16.4696 14.7822H16.455C15.7469 14.7822 15.0909 14.5779 14.5389 14.2205C13.8215 15.6691 12.3309 16.6629 10.6063 16.6629C8.97902 16.6629 7.56007 15.7792 6.80327 14.4673H6.80282ZM16.7368 19.9454C15.873 19.9454 15.1714 19.2439 15.1714 18.3796C15.1714 17.571 15.781 16.9097 16.5621 16.8213H16.609L16.6691 16.8169H16.674C16.6961 16.816 16.728 16.8142 16.766 16.812C17.6197 16.8279 18.3053 17.5228 18.3053 18.3796C18.3053 19.2363 17.6037 19.9454 16.7364 19.9454H16.7368ZM21.0074 20.9618C20.4876 20.9618 20.0657 20.5394 20.0657 20.0201C20.0657 19.5008 20.4876 19.0815 21.0074 19.0815C21.5271 19.0815 21.9455 19.5035 21.9455 20.0201C21.9455 20.5367 21.5266 20.9618 21.0074 20.9618Z" fill="#FF0097"/>
</svg>
